<svg t="1655347550988" class="icon" viewBox="0 0 1025 1024" version="1.1" xmlns="http://www.w3.org/2000/svg" p-id="17677" width="200" height="200"><path d="M529.066667 965.973333c-30.72 0-58.026667-10.24-81.92-34.133333a113.322667 113.322667 0 0 1 0-160.426667l139.946666-139.946666H119.466667C54.613333 631.466667 0 576.853333 0 512s54.613333-119.466667 119.466667-119.466667h471.04l-139.946667-139.946666a113.322667 113.322667 0 0 1 0-160.426667c44.373333-44.373333 116.053333-44.373333 160.426667 0l409.6 409.6c6.826667 6.826667 6.826667 17.066667 0 23.893333l-409.6 409.6c-23.893333 20.48-51.2 30.72-81.92 30.72z m-409.6-539.306666C71.68 426.666667 34.133333 464.213333 34.133333 512s37.546667 85.333333 85.333334 85.333333h512c6.826667 0 13.653333 3.413333 17.066666 10.24 3.413333 6.826667 0 13.653333-3.413333 17.066667l-170.666667 170.666667c-30.72 30.72-30.72 81.92 0 112.64 30.72 30.72 81.92 30.72 112.64 0L983.04 512 583.68 116.053333c-30.72-30.72-81.92-30.72-112.64 0-30.72 30.72-30.72 81.92 0 112.64l170.666667 170.666667c6.826667 3.413333 6.826667 10.24 6.826666 17.066667-3.413333 6.826667-10.24 10.24-17.066666 10.24h-512z" fill="#1296db" p-id="17678"></path></svg>