<svg t="1655359862484" class="icon" viewBox="0 0 1024 1024" version="1.1" xmlns="http://www.w3.org/2000/svg" p-id="2173" width="200" height="200"><path d="M221.866667 256h589.687466c2.628267 2.116267 4.642133 3.925333 6.007467 5.393067v240.3328a17.066667 17.066667 0 0 0 34.133333 0V257.8432c0-11.946667-8.0896-20.753067-24.2688-32.6656l-4.5056-3.310933H187.733333v615.697066a160.221867 160.221867 0 0 0 160.221867 160.221867h343.517867a160.221867 160.221867 0 0 0 160.221866-160.221867v-254.088533a17.066667 17.066667 0 1 0-34.133333 0v254.088533a126.088533 126.088533 0 0 1-126.088533 126.088534H347.9552A126.088533 126.088533 0 0 1 221.866667 837.563733V256zM75.434667 225.143467l761.787733-189.917867a17.066667 17.066667 0 1 0-8.260267-33.109333L67.208533 192.034133a17.066667 17.066667 0 0 0 8.260267 33.109334z" fill="#d81e06" p-id="2174"></path><path d="M547.4304 72.2944a34.133333 34.133333 0 0 0-41.3696-24.849067L340.48 88.746667a34.133333 34.133333 0 0 0-24.8832 41.335466l-33.109333 8.260267A68.266667 68.266667 0 0 1 332.219733 55.637333l165.5808-41.301333a68.266667 68.266667 0 0 1 82.773334 49.732267l-33.109334 8.260266z m33.109333-8.260267l-33.109333 8.260267a34.133333 34.133333 0 0 0-41.3696-24.849067L340.48 88.746667a34.133333 34.133333 0 0 0-24.8832 41.335466l-33.109333 8.260267A68.266667 68.266667 0 0 1 332.219733 55.637333l165.5808-41.301333a68.266667 68.266667 0 0 1 82.773334 49.732267zM375.466667 324.266667v546.133333a17.066667 17.066667 0 1 0 34.133333 0v-546.133333a17.066667 17.066667 0 1 0-34.133333 0zM614.4 324.266667v546.133333a17.066667 17.066667 0 1 0 34.133333 0v-546.133333a17.066667 17.066667 0 1 0-34.133333 0z" fill="#d81e06" p-id="2175"></path><path d="M865.416533 314.402133c-25.736533-41.472-52.4288-71.5776-86.903466-85.674666-32.699733-13.312-84.5824-10.24-134.621867 0.887466a27.0336 27.0336 0 0 0-6.2464 2.798934c-1.809067 0.989867-9.9328 5.802667-12.151467 7.031466-16.725333 9.454933-31.744 14.336-50.8928 14.336-9.0112 0-18.1248 0.682667-29.0816 1.911467-2.730667 0.341333-43.1104-14.916267-37.614933-24.3712 2.628267-4.539733 5.12-6.2464 11.127467-9.557333 8.3968-4.608 30.685867-16.384 49.220266-25.838934 29.149867-14.813867 49.732267-24.439467 59.733334-27.306666 131.9936-37.546667 224.6656-4.846933 304.264533 90.5216 113.595733 172.885333 16.930133 369.937067-140.322133 319.624533-106.8032-34.133333-119.671467-154.282667-39.048534-227.566933a51.2 51.2 0 1 1 68.846934 75.776c-24.746667 22.528-23.278933 46.3872 1.399466 54.272 51.780267 16.554667 87.995733-64.375467 42.2912-166.843734z m-74.001066-117.248c43.246933 17.6128 73.659733 51.950933 104.072533 101.2736 56.832 126.976 4.778667 243.336533-82.773333 215.313067-52.770133-16.896-56.285867-73.5232-13.9264-111.991467a17.066667 17.066667 0 1 0-22.971734-25.258666c-62.532267 56.797867-53.1456 144.2816 26.5216 169.7792 121.821867 38.980267 199.406933-119.227733 102.570667-266.786134-34.747733-41.5744-71.68-69.358933-114.4832-82.7392l0.989867 0.4096z" fill="#d81e06" p-id="2176"></path><path d="M729.258667 496.4352l59.665066-14.5408-8.0896-33.1776-59.665066 14.5408zM822.613333 573.917867l24.405334-58.1632-31.470934-13.2096-24.405333 58.1632zM933.341867 531.6608l-32.426667-57.890133-29.7984 16.657066 32.426667 57.924267zM969.6256 417.6896l-51.950933-16.384-10.274134 32.529067 51.950934 16.384zM946.517333 315.357867l-49.527466 9.5232 6.417066 33.518933 49.527467-9.5232zM880.3328 230.673067l-29.218133 26.248533 22.801066 25.3952 29.252267-26.282667z" fill="#d81e06" p-id="2177"></path></svg>